<?xml version="1.0" encoding="UTF-8" standalone="no"?>
<svg
   xmlns:dc="http://purl.org/dc/elements/1.1/"
   xmlns:cc="http://creativecommons.org/ns#"
   xmlns:rdf="http://www.w3.org/1999/02/22-rdf-syntax-ns#"
   xmlns:svg="http://www.w3.org/2000/svg"
   xmlns="http://www.w3.org/2000/svg"
   xmlns:sodipodi="http://sodipodi.sourceforge.net/DTD/sodipodi-0.dtd"
   xmlns:inkscape="http://www.inkscape.org/namespaces/inkscape"
   version="1.1"
   id="Layer_1"
   x="0px"
   y="0px"
   viewBox="0 0 127 127"
   style="enable-background:new 0 0 127 127;"
   xml:space="preserve"
   sodipodi:docname="duckduckgo.svg"
   inkscape:version="1.0 (4035a4fb49, 2020-05-01)"><metadata
   id="metadata48"><rdf:RDF><cc:Work
       rdf:about=""><dc:format>image/svg+xml</dc:format><dc:type
         rdf:resource="http://purl.org/dc/dcmitype/StillImage" /><dc:title></dc:title></cc:Work></rdf:RDF></metadata><defs
   id="defs46">
			
			
			
			
		
			
			
			
		
			
			
		</defs><sodipodi:namedview
   inkscape:document-rotation="0"
   pagecolor="#000000"
   bordercolor="#666666"
   borderopacity="1"
   objecttolerance="10"
   gridtolerance="10"
   guidetolerance="10"
   inkscape:pageopacity="0"
   inkscape:pageshadow="2"
   inkscape:window-width="1280"
   inkscape:window-height="1017"
   id="namedview44"
   showgrid="false"
   inkscape:snap-bbox="false"
   inkscape:snap-bbox-edge-midpoints="true"
   inkscape:snap-smooth-nodes="true"
   inkscape:snap-intersection-paths="true"
   inkscape:snap-page="true"
   inkscape:zoom="4"
   inkscape:cx="46.301674"
   inkscape:cy="105.29706"
   inkscape:window-x="1280"
   inkscape:window-y="30"
   inkscape:window-maximized="0"
   inkscape:current-layer="g33" />
<style
   type="text/css"
   id="style2">
	.st0{fill:#DE5833;}
	.st1{fill:#FFFFFF;}
	.st2{fill-rule:evenodd;clip-rule:evenodd;fill:#FED30A;}
	.st3{fill:#2D4F8D;}
	.st4{fill:#D5D7D8;}
	.st5{fill:#67BD47;}
	.st6{fill:#43A347;}
	.st7{fill:#4C4C4C;}
</style>
<g
   id="g41">
	<g
   id="g33"
   transform="matrix(1.055,0,0,1.055,-3.4814992,-3.4814992)">
		<path
   inkscape:export-ydpi="2457.6404"
   inkscape:export-xdpi="2457.6404"
   inkscape:export-filename="/home/leo/Documents/posidonicons/app/src/main/res/drawable-xhdpi/iconback.png"
   sodipodi:nodetypes="ccccc"
   inkscape:connector-curvature="0"
   id="path817"
   d="m 123.59986,63.489568 c 0.002,48.151022 -12.0358,60.189122 -60.188627,60.189582 C 15.261575,123.67869 3.2238742,111.64059 3.2238742,63.489568 3.2238742,15.33855 15.261575,3.3004564 63.411233,3.2999992 111.56406,3.3004564 123.60176,15.33855 123.59986,63.489568 Z"
   style="opacity:1;fill:#e13c2d;fill-opacity:1;stroke:none;stroke-width:24.0755" /><path
   transform="matrix(0.9478673,0,0,0.9478673,3.2999992,3.2999992)"
   d="M 44.789062 23.453125 C 44.141603 23.438775 43.480266 23.440014 42.802734 23.458984 C 41.254087 23.502254 39.625996 23.636199 37.919922 23.871094 C 37.919922 23.871094 40.196095 24.561916 42.767578 25.847656 C 42.767578 25.847656 37.820841 26.541593 37.623047 29.904297 C 37.623047 29.904297 47.416513 29.411152 52.955078 31.191406 C 40.196581 32.87276 33.569027 39.497736 34.755859 51.761719 C 36.315382 67.815627 46.628782 111.83724 50.144531 126.64648 C 54.249455 126.88944 58.667428 126.99995 63.417969 127 C 69.429404 126.99994 74.888513 126.81577 79.875 126.41797 C 73.377929 115.57794 63.931641 91.008748 63.931641 80.9375 C 63.931641 55.420514 81.041016 77.278323 81.041016 56.904297 C 81.041016 52.05804 78.669433 35.046838 63.833984 31.486328 C 60.832127 27.510849 54.500953 23.66839 44.789062 23.453125 z "
   style="fill:#ffffff;fill-opacity:1;stroke-width:0.989029"
   id="path845" />
		
		<path
   style="stroke-width:0.937468"
   id="Beak_2_"
   class="st2"
   d="m 60.898568,71.111934 c 0,-6.187298 8.437225,-8.155985 11.624621,-8.155985 8.62472,0 20.811827,-5.53107 23.811723,-5.437323 3.093647,0.09375 5.062348,1.312458 5.062348,2.718662 0,2.062433 -17.249449,9.843429 -23.905482,9.187201 -6.374793,-0.562482 -7.874744,0.09375 -7.874744,2.718662 0,2.249926 4.5936,4.312359 9.655936,4.312359 7.593503,0 14.999514,-3.37489 17.249442,-1.781192 1.968679,1.406204 -5.156086,6.468539 -13.312071,6.468539 -8.155984,0 -22.311773,-3.843624 -22.311773,-10.030923 z" />
		<path
   sodipodi:nodetypes="sssssscsssssssssssss"
   id="path9"
   style="fill:#000000;fill-opacity:1;stroke-width:0.937468"
   d="m 74.022459,50.393177 c -1.687445,0 -3.092732,1.407024 -3.092732,3.094468 0,1.687445 1.405287,3.092735 3.092732,3.092735 1.687446,0 3.094468,-1.40529 3.094468,-3.092735 0,-1.687444 -1.407022,-3.094468 -3.094468,-3.094468 z m 1.126366,0.938927 c 0.562481,0 0.937192,0.374711 0.937192,0.937191 -0.09375,0.562483 -0.468456,0.937193 -0.937192,0.937193 -0.468734,0 -0.938927,-0.37471 -0.938927,-0.937193 0,-0.468733 0.376446,-0.937191 0.938927,-0.937191 z m -25.125418,0.749755 c -1.968686,0 -3.56133,1.592642 -3.56133,3.561328 0,1.968685 1.592644,3.563063 3.56133,3.563063 1.968686,0 3.563065,-1.594378 3.563065,-3.563063 0,-1.968686 -1.594379,-3.561328 -3.563065,-3.561328 z m 1.313803,1.218348 c 0.562483,0 1.030912,0.46843 1.030912,1.030911 0,0.562482 -0.468429,1.030911 -1.030912,1.030911 -0.56248,0 -1.032646,-0.468429 -1.032646,-1.030911 0,-0.562481 0.470166,-1.030911 1.032646,-1.030911 z" />
		<path
   transform="matrix(0.9478673,0,0,0.9478673,3.2999992,3.2999992)"
   d="M 39.798828 23.648438 C 39.291373 23.702686 38.514587 23.772185 37.822266 23.871094 C 37.822266 23.871094 40.09649 24.565822 42.667969 25.851562 L 43.458984 25.851562 C 41.876534 24.76363 40.590051 24.04405 39.798828 23.648438 z M 38.019531 28.521484 C 37.821725 28.917098 37.623047 29.409781 37.623047 29.904297 C 37.524141 30.003203 47.143776 29.434589 52.78125 31.214844 C 53.152403 31.16682 53.449219 31.091797 53.449219 31.091797 C 48.30626 28.619225 40.195399 28.521485 38.019531 28.521484 z M 40.986328 35.443359 C 36.238982 38.904967 34.063538 44.247042 34.755859 51.763672 C 36.317194 67.836226 46.635192 111.87502 50.144531 126.64648 C 50.951282 126.69423 51.795911 126.72595 52.626953 126.76367 C 49.547343 113.88714 39.475652 70.965812 36.4375 48.894531 C 35.547371 42.366933 38.019239 38.509355 40.986328 35.443359 z "
   style="fill:#d7d7d7;fill-opacity:1;stroke-width:0.989029"
   id="path19" />
		<path
   style="fill:#43c440;fill-opacity:1;stroke-width:0.937468"
   id="path27"
   d="m 82.557628,91.243171 c -1.593699,-0.374988 -7.780998,4.031123 -10.124672,5.718559 -0.09375,-0.46873 -0.187493,-0.843715 -0.28124,-1.031215 -0.281241,-0.937467 -6.281047,-0.374983 -7.687251,1.124969 -3.749877,-1.78119 -11.249632,-5.249831 -11.34338,-3.093651 -0.28124,2.812413 0,14.530777 1.499951,15.374507 1.124964,0.65622 7.499756,-2.81242 10.687153,-4.5936 0,0 0,0 0.09375,0 1.968685,0.46873 5.624816,0 6.937273,-0.84373 0.187495,-0.0937 0.281242,-0.28124 0.374988,-0.46873 2.906155,1.12496 9.187201,3.37489 10.499659,2.90616 1.687445,-0.46875 1.312457,-14.624534 -0.656228,-15.093269 z"
   class="st5" /><path
   style="stroke-width:0.937468"
   id="path29"
   d="m 65.401936,104.74274 c -1.968687,-0.375 -1.312458,-2.34368 -1.312458,-6.93728 0,0 0,0 0,0 -0.468735,0.281238 -0.843723,0.65622 -0.843723,1.031216 0,4.593604 -0.749975,6.656034 1.312457,6.937274 1.968687,0.46873 5.624818,0 7.124768,-0.84373 0.281241,-0.18748 0.374988,-0.46872 0.468736,-0.93746 -1.406204,0.84371 -4.874842,1.21871 -6.74978,0.74998 z"
   class="st6" />
	<path
   sodipodi:nodetypes="sccscccc"
   d="m 71.738489,42.694319 c -1.464797,0.03516 -2.825252,0.856858 -3.528354,2.544302 2.15618,-1.687444 4.782288,-2.064056 7.688443,-0.376611 -1.124963,-1.453078 -2.695293,-2.202846 -4.160089,-2.167691 z m -24.91889,1.096862 c -2.241138,0.0064 -4.19008,1.317484 -4.014305,5.00877 1.593699,-3.65613 3.655506,-4.312957 7.967866,-3.844222 -1.160118,-0.703102 -2.608878,-1.168393 -3.953561,-1.164548 z"
   style="opacity:0.578704;fill:#040404;fill-opacity:1;stroke-width:0.937468"
   id="path839" /></g>
	
</g>
</svg>
