<?xml version="1.0" encoding="UTF-8" standalone="no"?>
<!-- Created with Inkscape (http://www.inkscape.org/) -->

<svg
   xmlns:dc="http://purl.org/dc/elements/1.1/"
   xmlns:cc="http://creativecommons.org/ns#"
   xmlns:rdf="http://www.w3.org/1999/02/22-rdf-syntax-ns#"
   xmlns:svg="http://www.w3.org/2000/svg"
   xmlns="http://www.w3.org/2000/svg"
   xmlns:xlink="http://www.w3.org/1999/xlink"
   xmlns:sodipodi="http://sodipodi.sourceforge.net/DTD/sodipodi-0.dtd"
   xmlns:inkscape="http://www.inkscape.org/namespaces/inkscape"
   inkscape:export-ydpi="2457"
   inkscape:export-xdpi="2457"
   inkscape:export-filename="/media/leo/posidon/AndroidStuff/posidonLauncher/icons.svg.png"
   sodipodi:docname="firefox_nightly.svg"
   inkscape:version="0.92.3 (2405546, 2018-03-11)"
   id="svg8"
   version="1.1"
   viewBox="0 0 2.6458333 2.6458334"
   height="10"
   width="10">
  <sodipodi:namedview
     id="base"
     pagecolor="#ffffff"
     bordercolor="#666666"
     borderopacity="1.0"
     inkscape:pageopacity="0.0"
     inkscape:pageshadow="2"
     inkscape:zoom="4"
     inkscape:cx="-47.55148"
     inkscape:cy="-20.592882"
     inkscape:document-units="mm"
     inkscape:current-layer="layer1"
     showgrid="true"
     inkscape:window-width="1322"
     inkscape:window-height="1017"
     inkscape:window-x="838"
     inkscape:window-y="30"
     inkscape:window-maximized="0"
     inkscape:snap-global="false"
     inkscape:snap-bbox="true"
     inkscape:bbox-nodes="true"
     inkscape:snap-grids="true"
     inkscape:object-paths="false"
     inkscape:snap-intersection-paths="false"
     inkscape:snap-smooth-nodes="false"
     inkscape:bbox-paths="true"
     inkscape:snap-bbox-edge-midpoints="true"
     inkscape:snap-bbox-midpoints="true"
     showguides="false"
     inkscape:snap-nodes="true"
     inkscape:snap-to-guides="true"
     inkscape:lockguides="false"
     inkscape:guide-bbox="true"
     inkscape:snap-midpoints="false"
     inkscape:snap-text-baseline="false"
     inkscape:snap-page="false"
     units="px"
     inkscape:object-nodes="false"
     inkscape:snap-others="false">
    <inkscape:grid
       empopacity="0.20784314"
       empcolor="#1e1e1e"
       opacity="0.03529412"
       color="#171717"
       empspacing="10"
       spacingy="0.026458334"
       spacingx="0.026458334"
       type="xygrid"
       id="grid815" />
    <sodipodi:guide
       position="2.2200195,59.928097"
       orientation="0,1"
       id="guide1580"
       inkscape:locked="false" />
  </sodipodi:namedview>
  <defs
     id="defs2">
    <linearGradient
       inkscape:collect="always"
       id="linearGradient943">
      <stop
         style="stop-color:#53febe;stop-opacity:1"
         offset="0"
         id="stop939" />
      <stop
         style="stop-color:#0290ee;stop-opacity:1"
         offset="1"
         id="stop941" />
    </linearGradient>
    <linearGradient
       inkscape:collect="always"
       id="linearGradient13665">
      <stop
         style="stop-color:#da974a;stop-opacity:1"
         offset="0"
         id="stop13661" />
      <stop
         style="stop-color:#fcf0e3;stop-opacity:1"
         offset="1"
         id="stop13663" />
    </linearGradient>
    <linearGradient
       inkscape:collect="always"
       id="linearGradient1632">
      <stop
         style="stop-color:#390067;stop-opacity:1"
         offset="0"
         id="stop1628" />
      <stop
         style="stop-color:#001639;stop-opacity:1"
         offset="1"
         id="stop1630" />
    </linearGradient>
    <linearGradient
       id="linearGradient9490"
       inkscape:collect="always">
      <stop
         id="stop9486"
         offset="0"
         style="stop-color:#000000;stop-opacity:1;" />
      <stop
         id="stop9488"
         offset="1"
         style="stop-color:#000000;stop-opacity:0;" />
    </linearGradient>
    <linearGradient
       id="linearGradient1581"
       inkscape:collect="always">
      <stop
         id="stop1577"
         offset="0"
         style="stop-color:#ffffff;stop-opacity:1;" />
      <stop
         id="stop1579"
         offset="1"
         style="stop-color:#ffffff;stop-opacity:0.173" />
    </linearGradient>
    <linearGradient
       id="linearGradient1317"
       inkscape:collect="always">
      <stop
         id="stop1313"
         offset="0"
         style="stop-color:#000000;stop-opacity:1;" />
      <stop
         id="stop1315"
         offset="1"
         style="stop-color:#000000;stop-opacity:0;" />
    </linearGradient>
    <linearGradient
       id="linearGradient1212"
       inkscape:collect="always">
      <stop
         id="stop1208"
         offset="0"
         style="stop-color:#ad05ff;stop-opacity:1" />
      <stop
         id="stop1210"
         offset="1"
         style="stop-color:#6320ff;stop-opacity:1" />
    </linearGradient>
    <linearGradient
       inkscape:collect="always"
       id="linearGradient1361">
      <stop
         style="stop-color:#ffe310;stop-opacity:1"
         offset="0"
         id="stop1357" />
      <stop
         style="stop-color:#f400d3;stop-opacity:1"
         offset="1"
         id="stop1359" />
    </linearGradient>
    <linearGradient
       id="linearGradient820"
       inkscape:collect="always">
      <stop
         id="stop816"
         offset="0"
         style="stop-color:#ffaa00;stop-opacity:1" />
      <stop
         id="stop818"
         offset="1"
         style="stop-color:#aa00aa;stop-opacity:1" />
    </linearGradient>
    <radialGradient
       gradientUnits="userSpaceOnUse"
       gradientTransform="matrix(7.5590835,0,0,7.5593495,-1.6249937,-1105.9805)"
       r="1.3228951"
       fy="292.68396"
       fx="0.34727016"
       cy="292.68396"
       cx="0.34727016"
       id="radialGradient824"
       xlink:href="#linearGradient820"
       inkscape:collect="always" />
    <linearGradient
       inkscape:collect="always"
       id="linearGradient1058">
      <stop
         style="stop-color:#ffffff;stop-opacity:1;"
         offset="0"
         id="stop1054" />
      <stop
         style="stop-color:#ffffff;stop-opacity:0;"
         offset="1"
         id="stop1056" />
    </linearGradient>
    <linearGradient
       id="linearGradient867"
       inkscape:collect="always">
      <stop
         id="stop863"
         offset="0"
         style="stop-color:#ff5555;stop-opacity:1" />
      <stop
         id="stop865"
         offset="1"
         style="stop-color:#ff0088;stop-opacity:1" />
    </linearGradient>
    <linearGradient
       inkscape:collect="always"
       xlink:href="#linearGradient1058"
       id="linearGradient1060"
       x1="84.004997"
       y1="132.03229"
       x2="87.180412"
       y2="132.03229"
       gradientUnits="userSpaceOnUse" />
    <linearGradient
       inkscape:collect="always"
       xlink:href="#linearGradient867"
       id="linearGradient895"
       gradientUnits="userSpaceOnUse"
       x1="84.004997"
       y1="132.03229"
       x2="87.180412"
       y2="132.03229"
       gradientTransform="matrix(-0.91383068,0.95125001,-0.75495984,-0.30842086,263.48902,87.100404)" />
    <filter
       id="filter1127"
       style="color-interpolation-filters:sRGB"
       inkscape:label="Aluminium"
       inkscape:menu-tooltip="Aluminium effect with sharp brushed reflections"
       inkscape:menu="Non-realistic 3D Shaders"
       height="1.5"
       y="-0.25"
       width="1.5"
       x="-0.25">
      <feGaussianBlur
         id="feGaussianBlur1107"
         in="SourceGraphic"
         stdDeviation="5"
         result="result8" />
      <feComposite
         id="feComposite1109"
         result="result22"
         in2="SourceGraphic"
         operator="xor" />
      <feComposite
         k4="0"
         k3="0"
         k1="0"
         id="feComposite1111"
         in="result22"
         in2="result22"
         result="result20"
         operator="arithmetic"
         k2="1" />
      <feComposite
         id="feComposite1113"
         result="result6"
         operator="over"
         in="result20"
         in2="result22" />
      <feOffset
         id="feOffset1115"
         result="result21"
         in="result6" />
      <feDisplacementMap
         id="feDisplacementMap1117"
         in="result21"
         xChannelSelector="A"
         yChannelSelector="A"
         scale="100"
         result="result4"
         in2="result20" />
      <feComposite
         k4="0"
         k2="0"
         id="feComposite1119"
         in="result4"
         k3="0.5"
         result="fbSourceGraphic"
         operator="arithmetic"
         k1="1"
         in2="SourceGraphic" />
      <feComposite
         id="feComposite1121"
         in="fbSourceGraphic"
         operator="in"
         result="result12"
         in2="result4" />
      <feComposite
         id="feComposite1123"
         result="result18"
         operator="in"
         in2="SourceGraphic" />
      <feComposite
         id="feComposite1125"
         in="result18"
         operator="in"
         in2="SourceGraphic"
         result="result19" />
    </filter>
    <filter
       id="filter1149"
       style="color-interpolation-filters:sRGB"
       inkscape:label="Aluminium"
       inkscape:menu-tooltip="Aluminium effect with sharp brushed reflections"
       inkscape:menu="Non-realistic 3D Shaders"
       height="1.5"
       y="-0.25"
       width="1.5"
       x="-0.25">
      <feGaussianBlur
         id="feGaussianBlur1129"
         in="SourceGraphic"
         stdDeviation="5"
         result="result8" />
      <feComposite
         id="feComposite1131"
         result="result22"
         in2="SourceGraphic"
         operator="xor" />
      <feComposite
         k4="0"
         k3="0"
         k1="0"
         id="feComposite1133"
         in="result22"
         in2="result22"
         result="result20"
         operator="arithmetic"
         k2="1" />
      <feComposite
         id="feComposite1135"
         result="result6"
         operator="over"
         in="result20"
         in2="result22" />
      <feOffset
         id="feOffset1137"
         result="result21"
         in="result6" />
      <feDisplacementMap
         id="feDisplacementMap1139"
         in="result21"
         xChannelSelector="A"
         yChannelSelector="A"
         scale="100"
         result="result4"
         in2="result20" />
      <feComposite
         k4="0"
         k2="0"
         id="feComposite1141"
         in="result4"
         k3="0.5"
         result="fbSourceGraphic"
         operator="arithmetic"
         k1="1"
         in2="SourceGraphic" />
      <feComposite
         id="feComposite1143"
         in="fbSourceGraphic"
         operator="in"
         result="result12"
         in2="result4" />
      <feComposite
         id="feComposite1145"
         result="result18"
         operator="in"
         in2="SourceGraphic" />
      <feComposite
         id="feComposite1147"
         in="result18"
         operator="in"
         in2="SourceGraphic"
         result="result19" />
    </filter>
    <linearGradient
       gradientTransform="matrix(1,0,0,0.60000302,0.13229163,118.40223)"
       gradientUnits="userSpaceOnUse"
       y2="297.22049"
       x2="5.4239583"
       y1="296.33853"
       x1="5.4239583"
       id="linearGradient1153"
       xlink:href="#linearGradient1058"
       inkscape:collect="always" />
    <clipPath
       clipPathUnits="userSpaceOnUse"
       id="clipPath1539">
      <path
         d="M 0,0 H 3489 V 4735 H 0 Z"
         id="path1537"
         inkscape:connector-curvature="0" />
    </clipPath>
    <clipPath
       clipPathUnits="userSpaceOnUse"
       id="clipPath1545">
      <path
         d="m 3489.02,2914.3 c 0,126.22 -11.32,247.6 -32.37,364.11 H 1780.11 v -688.58 h 958.03 c -41.27,-222.51 -166.69,-411.05 -355.21,-537.27 v -446.65 h 575.29 c 336.61,309.91 530.8,766.26 530.8,1308.39 z"
         id="path1543"
         inkscape:connector-curvature="0"
         style="clip-rule:evenodd" />
    </clipPath>
    <clipPath
       clipPathUnits="userSpaceOnUse"
       id="clipPath1555">
      <path
         d="m 1780.11,1174.64 c 480.63,0 883.59,159.4 1178.11,431.27 l -575.29,446.65 c -159.41,-106.81 -363.31,-169.92 -602.82,-169.92 -463.64,0 -856.075,313.14 -996.051,733.9 H 189.34 v -461.22 c 292.906,-581.78 894.9,-980.68 1590.77,-980.68 z"
         id="path1553"
         inkscape:connector-curvature="0"
         style="clip-rule:evenodd" />
    </clipPath>
    <clipPath
       clipPathUnits="userSpaceOnUse"
       id="clipPath1565">
      <path
         d="m 784.059,2616.54 c -35.61,106.8 -55.836,220.89 -55.836,338.22 0,117.32 20.226,231.41 55.836,338.22 v 461.2 H 189.34 C 68.7734,3513.87 0,3242 0,2954.76 0,2667.51 68.7734,2395.63 189.34,2155.32 Z"
         id="path1563"
         inkscape:connector-curvature="0"
         style="clip-rule:evenodd" />
    </clipPath>
    <clipPath
       clipPathUnits="userSpaceOnUse"
       id="clipPath1575">
      <path
         d="m 1780.11,4026.87 c 261.35,0 496.01,-89.82 680.49,-266.21 l 510.57,510.57 c -308.29,287.24 -711.24,463.64 -1191.06,463.64 -695.87,0 -1297.864,-398.91 -1590.77,-980.69 l 594.719,-461.2 c 139.976,420.75 532.411,733.89 996.051,733.89 z"
         id="path1573"
         inkscape:connector-curvature="0"
         style="clip-rule:evenodd" />
    </clipPath>
    <radialGradient
       r="1.1245615"
       fy="292.80884"
       fx="4.387929"
       cy="292.80884"
       cx="4.387929"
       gradientTransform="matrix(2.3527141,0,0,2.352797,-5.8256156,-395.88858)"
       gradientUnits="userSpaceOnUse"
       id="radialGradient1396"
       xlink:href="#linearGradient1361"
       inkscape:collect="always" />
    <linearGradient
       gradientTransform="matrix(3.7795276,0,0,3.7795276,-14.999999,-2.6225293e-4)"
       gradientUnits="userSpaceOnUse"
       y2="233.49997"
       x2="6.3499999"
       y1="232.17705"
       x1="5.2916665"
       id="linearGradient1319"
       xlink:href="#linearGradient1317"
       inkscape:collect="always" />
    <radialGradient
       gradientTransform="matrix(0,2.0000022,-2.0000022,0,549.84455,274.27519)"
       gradientUnits="userSpaceOnUse"
       r="1.3229167"
       fy="274.92197"
       fx="0.11758917"
       cy="274.92197"
       cx="0.11758917"
       id="radialGradient1565"
       xlink:href="#linearGradient1581"
       inkscape:collect="always" />
    <linearGradient
       gradientUnits="userSpaceOnUse"
       y2="1048.5197"
       x2="11"
       y1="1039.5197"
       x1="3"
       id="linearGradient9492"
       xlink:href="#linearGradient9490"
       inkscape:collect="always" />
    <linearGradient
       y2="1048.5197"
       x2="11"
       y1="1039.5197"
       x1="3"
       gradientUnits="userSpaceOnUse"
       id="linearGradient9497"
       xlink:href="#linearGradient9490"
       inkscape:collect="always" />
    <linearGradient
       y2="1048.5197"
       x2="11"
       y1="1039.5197"
       x1="3"
       gradientUnits="userSpaceOnUse"
       id="linearGradient9500"
       xlink:href="#linearGradient9490"
       inkscape:collect="always" />
    <radialGradient
       gradientUnits="userSpaceOnUse"
       gradientTransform="matrix(0,1.9999797,-2.0000327,0,354.55777,167.35424)"
       r="1.3228951"
       fy="175.29166"
       fx="3.968735"
       cy="175.29166"
       cx="3.968735"
       id="radialGradient1552"
       xlink:href="#linearGradient1058"
       inkscape:collect="always" />
    <radialGradient
       gradientUnits="userSpaceOnUse"
       gradientTransform="matrix(0,2.0000025,-1.9999999,0,265.65199,132.6937)"
       r="1.3229167"
       fy="131.37079"
       fx="-1.2882639e-07"
       cy="131.37079"
       cx="-1.2882639e-07"
       id="radialGradient2013"
       xlink:href="#linearGradient1058"
       inkscape:collect="always" />
    <linearGradient
       gradientTransform="translate(0,-3.1749825)"
       y2="-9.5250177"
       x2="232.17705"
       y1="-7.4083509"
       x1="232.17705"
       gradientUnits="userSpaceOnUse"
       id="linearGradient8422"
       xlink:href="#linearGradient1212"
       inkscape:collect="always" />
    <radialGradient
       gradientUnits="userSpaceOnUse"
       gradientTransform="matrix(-4.2285147e-6,2.0000013,-2.0000022,-4.2285166e-6,238.13561,119.46505)"
       r="1.3229166"
       fy="119.06767"
       fx="-0.13229416"
       cy="119.06767"
       cx="-0.13229416"
       id="radialGradient8595"
       xlink:href="#linearGradient1058"
       inkscape:collect="always" />
    <radialGradient
       r="1.3229166"
       fy="216.9635"
       fx="0.66145843"
       cy="216.9635"
       cx="0.66145843"
       gradientTransform="matrix(0,1.9999852,-2.0000006,0,437.10214,213.65623)"
       gradientUnits="userSpaceOnUse"
       id="radialGradient1475"
       xlink:href="#linearGradient1058"
       inkscape:collect="always" />
    <linearGradient
       gradientUnits="userSpaceOnUse"
       y2="117.61246"
       x2="2.3812501"
       y1="115.49579"
       x1="0.26458335"
       id="linearGradient1626"
       xlink:href="#linearGradient1632"
       inkscape:collect="always" />
    <radialGradient
       gradientTransform="matrix(0,2,-2,0,230.46242,115.23121)"
       gradientUnits="userSpaceOnUse"
       r="1.3229166"
       fy="115.23121"
       fx="-1.4210855e-14"
       cy="115.23121"
       cx="-1.4210855e-14"
       id="radialGradient1636"
       xlink:href="#linearGradient1058"
       inkscape:collect="always" />
    <linearGradient
       y2="133.48746"
       x2="2.3812349"
       y1="131.37079"
       x1="0.26456821"
       gradientUnits="userSpaceOnUse"
       id="linearGradient1532"
       xlink:href="#linearGradient1212"
       inkscape:collect="always" />
    <radialGradient
       r="1.3229166"
       fy="131.1062"
       fx="-1.4414062e-05"
       cy="131.1062"
       cx="-1.4414062e-05"
       gradientTransform="matrix(0,2,-2,0,262.2129,131.10624)"
       gradientUnits="userSpaceOnUse"
       id="radialGradient1535"
       xlink:href="#linearGradient1581"
       inkscape:collect="always" />
    <linearGradient
       gradientTransform="translate(-3.7041664)"
       y2="217.88954"
       x2="10.054167"
       y1="216.03746"
       x1="8.7312498"
       gradientUnits="userSpaceOnUse"
       id="linearGradient2045"
       xlink:href="#linearGradient1212"
       inkscape:collect="always" />
    <linearGradient
       y2="209.68753"
       x2="2.6458268"
       y1="207.04167"
       x1="3.6766665e-05"
       gradientTransform="translate(5.0175617e-4,73.554125)"
       gradientUnits="userSpaceOnUse"
       id="linearGradient2064"
       xlink:href="#linearGradient1058"
       inkscape:collect="always" />
    <radialGradient
       r="3.0000496"
       fy="1054.5137"
       fx="16.999998"
       cy="1054.5137"
       cx="16.999998"
       gradientTransform="matrix(0,0.5302134,-0.52915798,0,562.81977,269.83522)"
       gradientUnits="userSpaceOnUse"
       id="radialGradient2079"
       xlink:href="#linearGradient1058"
       inkscape:collect="always" />
    <radialGradient
       r="1.3229166"
       fy="195.13538"
       fx="-2.0117186e-06"
       cy="195.13538"
       cx="-2.0117186e-06"
       gradientTransform="matrix(0,2.0000001,-2.0000001,0,396.0916,195.13537)"
       gradientUnits="userSpaceOnUse"
       id="radialGradient2193"
       xlink:href="#linearGradient1058"
       inkscape:collect="always" />
    <linearGradient
       y2="233.50006"
       x2="6.3499999"
       y1="232.17705"
       x1="5.2916665"
       gradientTransform="matrix(3.7795276,0,0,3.7795276,-14.999999,-2.6225293e-4)"
       gradientUnits="userSpaceOnUse"
       id="linearGradient2085"
       xlink:href="#linearGradient1317"
       inkscape:collect="always" />
    <linearGradient
       gradientTransform="matrix(2.5194596,0,0,2.5194596,26.666966,197.87552)"
       y2="161.40132"
       x2="2.9105587"
       y1="155.05075"
       x1="0.92600608"
       gradientUnits="userSpaceOnUse"
       id="linearGradient2165"
       xlink:href="#linearGradient1361"
       inkscape:collect="always" />
    <linearGradient
       inkscape:collect="always"
       xlink:href="#linearGradient13665"
       id="linearGradient13659"
       x1="27.912245"
       y1="589.51965"
       x2="36.172234"
       y2="597.91272"
       gradientUnits="userSpaceOnUse" />
    <clipPath
       clipPathUnits="userSpaceOnUse"
       id="clipPath13774">
      <path
         style="opacity:1;fill:#262626;fill-opacity:1;stroke:none;stroke-width:0.45178318"
         d="m 2.3010455,109.11024 c 0.4518128,0.7825 0.3691353,1.09107 -0.413401,1.54288 -0.7824934,0.45177 -1.09106774,0.36908 -1.54285107,-0.41343 -0.45178334,-0.78252 -0.36910575,-1.09109 0.41337864,-1.54287 0.78254533,-0.45179 1.09111963,-0.36911 1.54287343,0.41342 z"
         id="path13776"
         inkscape:connector-curvature="0"
         sodipodi:nodetypes="ccccc"
         inkscape:export-filename="/home/leo/Documents/posidonicons/app/src/main/res/drawable-xhdpi/iconback.png"
         inkscape:export-xdpi="2457.6404"
         inkscape:export-ydpi="2457.6404" />
    </clipPath>
    <radialGradient
       gradientUnits="userSpaceOnUse"
       gradientTransform="matrix(0.105,0.995,-0.653,0.069,-4680.304,8470.1869)"
       r="86.499001"
       cy="-8522.8594"
       cx="-7927.165"
       id="i">
      <stop
         id="stop932"
         stop-color="#fff44f"
         offset="0" />
      <stop
         id="stop934"
         stop-color="#ffe847"
         offset=".06" />
      <stop
         id="stop936"
         stop-color="#ffc830"
         offset=".168" />
      <stop
         id="stop938"
         stop-color="#ff980e"
         offset=".304" />
      <stop
         id="stop940"
         stop-color="#ff8b16"
         offset=".356" />
      <stop
         id="stop942"
         stop-color="#ff672a"
         offset=".455" />
      <stop
         id="stop944"
         stop-color="#ff3647"
         offset=".57" />
      <stop
         id="stop946"
         stop-color="#e31587"
         offset=".737" />
    </radialGradient>
    <linearGradient
       inkscape:collect="always"
       xlink:href="#linearGradient943"
       id="linearGradient937"
       x1="1.5911669"
       y1="294.67242"
       x2="0.98510504"
       y2="296.58875"
       gradientUnits="userSpaceOnUse" />
  </defs>
  <metadata
     id="metadata5">
    <rdf:RDF>
      <cc:Work
         rdf:about="">
        <dc:format>image/svg+xml</dc:format>
        <dc:type
           rdf:resource="http://purl.org/dc/dcmitype/StillImage" />
        <dc:title />
      </cc:Work>
    </rdf:RDF>
  </metadata>
  <g
     transform="translate(0,-294.35413)"
     id="layer1"
     inkscape:groupmode="layer"
     inkscape:label="Layer 1">
    <g
       transform="matrix(0.10000003,0,0,0.14285871,7.2760414,245.82083)"
       id="g2608"
       style="fill:#3e3e3e;fill-opacity:1" />
    <path
       inkscape:export-ydpi="2457.6404"
       inkscape:export-xdpi="2457.6404"
       inkscape:export-filename="/home/leo/Documents/posidonicons/app/src/main/res/drawable-xhdpi/iconback.png"
       sodipodi:nodetypes="ccccc"
       inkscape:connector-curvature="0"
       id="path817"
       d="m 2.6458117,295.67705 c 4e-5,1.05833 -0.26454,1.32292 -1.3229101,1.32293 -1.0582999,-10e-6 -1.322879902267,-0.2646 -1.322879902267,-1.32293 0,-1.05833 0.264580002267,-1.32292 1.322879902267,-1.32293 1.0583701,10e-6 1.3229501,0.2646 1.3229101,1.32293 z"
       style="opacity:1;fill:#0a214d;fill-opacity:0.86666667;stroke:none;stroke-width:0.52916515" />
    <circle
       r="0"
       inkscape:export-ydpi="2457"
       inkscape:export-xdpi="2457"
       inkscape:export-filename="/home/leo/Documents/posidonicons/app/src/main/res/drawable-nodpi/camera.png"
       transform="scale(-1,1)"
       cy="287.7005"
       cx="-1.3229167"
       id="circle865"
       style="opacity:1;fill:#fafafa;fill-opacity:1;stroke-width:0.39687496" />
    <g
       id="g1972" />
    <g
       transform="matrix(0.85714037,0,0,0.85714037,11.981837,100.22171)"
       id="g1443" />
    <g
       id="g1457"
       transform="translate(-15.874999,3.2798449e-5)" />
    <g
       transform="matrix(1.1335519,0,0,1.1429608,-0.66177081,-39.433295)"
       id="g1639" />
    <g
       style="fill:#ffffff;fill-opacity:1"
       transform="rotate(-45,8.4032478,167.45081)"
       id="g1234" />
    <g
       transform="rotate(-45,-0.66145589,248.87403)"
       id="g5033"
       style="fill:#00aa5f;fill-opacity:1" />
    <g
       transform="translate(1.5897133e-6)"
       inkscape:export-ydpi="2457"
       inkscape:export-xdpi="2457"
       inkscape:export-filename="/media/leo/posidon/android/posidonLauncher/app/src/main/res/drawable-nodpi/whatsapp.png"
       id="g5096" />
    <g
       id="g6116"
       transform="matrix(0.85715475,0,0,0.85715475,4.1577224,27.042706)"
       style="opacity:1;fill:#000000;fill-opacity:1" />
    <g
       id="g6227" />
    <g
       id="g1267"
       transform="matrix(0.87498422,0,0,0.87498422,-3.8033429,36.408735)" />
    <g
       inkscape:export-ydpi="2457"
       inkscape:export-xdpi="2457"
       inkscape:export-filename="/media/leo/posidon/android/posidonLauncher/app/src/main/res/mipmap-nodpi/ic.png"
       transform="translate(3.9687651,2.4931639e-6)"
       id="g1308" />
    <path
       inkscape:connector-curvature="0"
       id="path996"
       style="fill:none;fill-opacity:1;stroke:url(#linearGradient937);stroke-width:0.06;stroke-linecap:square;stroke-miterlimit:3.5999999;stroke-dasharray:none;stroke-opacity:1"
       d="m 1.6439791,295.31656 c 0.033117,0.0325 0.061486,0.0695 0.084271,0.10996 0.00498,0.003 0.00964,0.008 0.013601,0.0116 0.2056919,0.18961 0.097918,0.45764 0.089889,0.47672 0.1670911,-0.13768 0.2738812,-0.34126 0.241788,-0.5514 -0.1026229,-0.25586 -0.2765734,-0.35897 -0.4186404,-0.5835 -0.00719,-0.0116 -0.014373,-0.0228 -0.021373,-0.0348 -0.004,-0.008 -0.00722,-0.0131 -0.00999,-0.0187 -0.0059,-0.0114 -0.010438,-0.0235 -0.01353,-0.036 -1.502e-4,-0.001 -10e-4,-0.002 -0.00207,-0.002 -5.597e-4,-1.5e-4 -0.00115,-1.5e-4 -0.00171,0 -1.152e-4,0 -3.008e-4,1.9e-4 -4.424e-4,2.8e-4 -1.416e-4,5e-5 -4.423e-4,2.5e-4 -6.563e-4,3.5e-4 -0.03509,0.0167 -0.2431691,0.34611 0.038858,0.62814 z m -1.21891228,0.35801 c 0.0700153,0.41372 0.44497517,0.7296 0.87066158,0.74166 0.3939676,0.0116 0.6456576,-0.21757 0.7496389,-0.44067 0.088043,-0.19282 0.098158,-0.41221 0.028231,-0.61232 v -0.002 c 0,-5.6e-4 -1.416e-4,-0.002 0,-0.002 l 1.681e-4,0.002 c 0.032186,0.21012 -0.074696,0.41372 -0.2417881,0.55138 l -5.13e-4,0.002 c -0.3255676,0.26515 -0.6371369,0.15997 -0.7001999,0.11705 -0.0044,-0.002 -0.0088,-0.004 -0.013203,-0.007 -0.18982031,-0.09 -0.26823933,-0.26288 -0.2514319,-0.41122 -0.0920521,10e-4 -0.17627382,-0.0516 -0.21491488,-0.13517 0.10129855,-0.0621 0.22756364,-0.0672 0.33354994,-0.0135 0.10742784,0.0488 0.22968924,0.0537 0.34064294,0.0135 -3.541e-4,-0.008 -0.1582427,-0.0702 -0.2198073,-0.13085 -0.032891,-0.0324 -0.048503,-0.048 -0.062338,-0.0598 -0.00748,-0.006 -0.015292,-0.0122 -0.023409,-0.0177 -0.00539,-0.003 -0.011448,-0.008 -0.018727,-0.0124 -0.0661763,-0.043 -0.1977798,-0.0406 -0.2021338,-0.0406 h -4.2114e-4 c -0.0359559,-0.0457 -0.0313605,-0.19793 -0.0293002,-0.22933 -0.0137383,0.007 -0.0228585,0.0121 -0.0323579,0.0182 -0.0317427,0.0227 -0.0614159,0.0481 -0.088672,0.076 -0.031172,0.0314 -0.0596585,0.0654 -0.10157465,0.12481 -0.0419161,0.0594 -0.0832874,0.15284 -0.10531107,0.25161 -4.4503e-4,0.002 -0.0326785,0.14277 -0.016784,0.21585 z m 0.38216634,-0.46039 c 0.004423,-9e-5 0.12775945,10e-4 0.19393584,0.0437 l 8.3e-6,-3e-5 c 0.00735,0.005 0.013413,0.009 0.018727,0.0124 -0.0206751,-0.0724 -0.0215592,-0.14894 -0.00256,-0.22175 -0.0836877,0.0405 -0.15081458,0.0918 -0.21114467,0.16258 m 0.51942177,0.26755 c -0.0015,0.0227 -0.081229,0.10037 -0.1091077,0.10037 -0.25798692,0 -0.29986498,0.15607 -0.29986498,0.15607 0.0114234,0.1314 0.10299808,0.23965 0.21369758,0.29691 0.00506,0.002 0.010187,0.006 0.01531,0.008 0.00888,0.004 0.01776,0.007 0.026639,0.0104 0.037996,0.0134 0.077787,0.0211 0.1180499,0.0227 0.4521851,0.0212 0.5397804,-0.54073 0.2134637,-0.70378 0.076979,-0.01 0.1549358,0.009 0.2187538,0.0531 -0.081149,-0.14321 -0.2329236,-0.23184 -0.3975259,-0.23214 -0.010765,0 -0.021301,0.002 -0.031882,0.002 -0.091002,0.006 -0.1780102,0.0398 -0.2496767,0.0962 0.013835,0.0116 0.029448,0.0274 0.062338,0.0598 0.061565,0.0607 0.2194561,0.12347 0.2198073,0.13084 z m 0.3969405,-0.0563 c 0.00197,0.002 0.00379,0.002 0.00564,0.005 -0.022794,-0.0404 -0.051163,-0.0774 -0.084271,-0.10985 -0.2819777,-0.28194 -0.073899,-0.61142 -0.038809,-0.62815 l 3.538e-4,-5.2e-4 c -0.2278832,0.13341 -0.305202,0.38043 -0.3123183,0.50398 0.01058,-5.5e-4 0.021067,-0.002 0.031882,-0.002 0.1646023,3e-4 0.3163764,0.0889 0.3975258,0.23214 z m 0.2912525,-0.30386 c 0.018207,0.0909 0.042848,0.14698 0.059502,0.24297 v 0.002 l 1.681e-4,0.002 c 0.069924,0.2001 0.059809,0.41949 -0.028231,0.61231 -0.1039816,0.22311 -0.3556711,0.45179 -0.7496388,0.44067 -0.42568646,-0.012 -0.80057609,-0.32793 -0.87066159,-0.74165 -0.0127578,-0.0653 -0.002067,-0.0993 0.004347,-0.15237 -0.008749,0.0412 -0.0115642,0.0841 -0.0125165,0.12621 v 0.005 c 9.8252e-4,1.1101 1.61270689,1.24735 1.80138999,0.15341 0.00153,-0.0116 0.00278,-0.0232 0.00412,-0.035 0.018686,-0.15444 -0.00154,-0.31111 -0.049907,-0.43211 -0.048367,-0.121 -0.1149545,-0.17937 -0.1585724,-0.22344 z"
       sodipodi:nodetypes="cccccccccccccccccccsccccccccccccccscccccccccccccccscccccccccccccccccccccccccccccccccccc" />
  </g>
</svg>
